<mxfile host="app.diagrams.net" agent="Mozilla/5.0 (Macintosh; Intel Mac OS X 10_15_7) AppleWebKit/537.36 (KHTML, like Gecko) Chrome/139.0.0.0 Safari/537.36" version="28.1.2">
  <diagram name="Page-1" id="lLhAy3V9YeZeUWqmXz8O">
    <mxGraphModel dx="4300" dy="2610" grid="1" gridSize="10" guides="1" tooltips="1" connect="1" arrows="1" fold="1" page="1" pageScale="1" pageWidth="850" pageHeight="1100" math="0" shadow="0">
      <root>
        <mxCell id="0" />
        <mxCell id="1" parent="0" />
        <mxCell id="26erQ_Vt4P8bGItdYbQo-84" value="" style="edgeStyle=orthogonalEdgeStyle;rounded=0;orthogonalLoop=1;jettySize=auto;html=1;" edge="1" parent="1" source="26erQ_Vt4P8bGItdYbQo-85" target="26erQ_Vt4P8bGItdYbQo-87">
          <mxGeometry relative="1" as="geometry" />
        </mxCell>
        <mxCell id="26erQ_Vt4P8bGItdYbQo-85" value="Start" style="ellipse;whiteSpace=wrap;html=1;" vertex="1" parent="1">
          <mxGeometry x="352" y="20" width="120" height="60" as="geometry" />
        </mxCell>
        <mxCell id="26erQ_Vt4P8bGItdYbQo-86" style="edgeStyle=orthogonalEdgeStyle;rounded=0;orthogonalLoop=1;jettySize=auto;html=1;exitX=0.5;exitY=1;exitDx=0;exitDy=0;entryX=0.5;entryY=0;entryDx=0;entryDy=0;" edge="1" parent="1" source="26erQ_Vt4P8bGItdYbQo-87" target="26erQ_Vt4P8bGItdYbQo-89">
          <mxGeometry relative="1" as="geometry" />
        </mxCell>
        <mxCell id="26erQ_Vt4P8bGItdYbQo-87" value="int i&amp;nbsp; &amp;lt;-- 0&lt;div&gt;&lt;span style=&quot;background-color: transparent; color: light-dark(rgb(0, 0, 0), rgb(255, 255, 255));&quot;&gt;int n &amp;lt;-- 0&lt;/span&gt;&lt;div&gt;&lt;span style=&quot;background-color: transparent; color: light-dark(rgb(0, 0, 0), rgb(255, 255, 255));&quot;&gt;int j &amp;lt;-- 0&lt;/span&gt;&lt;/div&gt;&lt;/div&gt;" style="whiteSpace=wrap;html=1;" vertex="1" parent="1">
          <mxGeometry x="335" y="160" width="155" height="60" as="geometry" />
        </mxCell>
        <mxCell id="26erQ_Vt4P8bGItdYbQo-88" value="" style="edgeStyle=orthogonalEdgeStyle;rounded=0;orthogonalLoop=1;jettySize=auto;html=1;" edge="1" parent="1" source="26erQ_Vt4P8bGItdYbQo-89" target="26erQ_Vt4P8bGItdYbQo-94">
          <mxGeometry relative="1" as="geometry" />
        </mxCell>
        <mxCell id="26erQ_Vt4P8bGItdYbQo-89" value="show &quot;Enter Number : &quot;" style="shape=parallelogram;perimeter=parallelogramPerimeter;whiteSpace=wrap;html=1;fixedSize=1;" vertex="1" parent="1">
          <mxGeometry x="320" y="260" width="185" height="60" as="geometry" />
        </mxCell>
        <mxCell id="26erQ_Vt4P8bGItdYbQo-90" value="" style="edgeStyle=orthogonalEdgeStyle;rounded=0;orthogonalLoop=1;jettySize=auto;html=1;" edge="1" parent="1" source="26erQ_Vt4P8bGItdYbQo-94" target="26erQ_Vt4P8bGItdYbQo-99">
          <mxGeometry relative="1" as="geometry" />
        </mxCell>
        <mxCell id="26erQ_Vt4P8bGItdYbQo-91" value="T" style="edgeLabel;html=1;align=center;verticalAlign=middle;resizable=0;points=[];" vertex="1" connectable="0" parent="26erQ_Vt4P8bGItdYbQo-90">
          <mxGeometry x="-0.2836" y="1" relative="1" as="geometry">
            <mxPoint as="offset" />
          </mxGeometry>
        </mxCell>
        <mxCell id="26erQ_Vt4P8bGItdYbQo-92" style="edgeStyle=orthogonalEdgeStyle;rounded=0;orthogonalLoop=1;jettySize=auto;html=1;exitX=1;exitY=0.5;exitDx=0;exitDy=0;entryX=0;entryY=0.5;entryDx=0;entryDy=0;" edge="1" parent="1" source="26erQ_Vt4P8bGItdYbQo-94" target="26erQ_Vt4P8bGItdYbQo-100">
          <mxGeometry relative="1" as="geometry" />
        </mxCell>
        <mxCell id="26erQ_Vt4P8bGItdYbQo-93" value="F" style="edgeLabel;html=1;align=center;verticalAlign=middle;resizable=0;points=[];" vertex="1" connectable="0" parent="26erQ_Vt4P8bGItdYbQo-92">
          <mxGeometry x="-0.0357" y="2" relative="1" as="geometry">
            <mxPoint as="offset" />
          </mxGeometry>
        </mxCell>
        <mxCell id="26erQ_Vt4P8bGItdYbQo-94" value="รับค่าเป็นตัวเลขตัวเลข?" style="rhombus;whiteSpace=wrap;html=1;" vertex="1" parent="1">
          <mxGeometry x="321" y="360" width="182" height="80" as="geometry" />
        </mxCell>
        <mxCell id="26erQ_Vt4P8bGItdYbQo-95" style="edgeStyle=orthogonalEdgeStyle;rounded=0;orthogonalLoop=1;jettySize=auto;html=1;exitX=1;exitY=0.5;exitDx=0;exitDy=0;entryX=0;entryY=0.5;entryDx=0;entryDy=0;" edge="1" parent="1" source="26erQ_Vt4P8bGItdYbQo-99" target="26erQ_Vt4P8bGItdYbQo-101">
          <mxGeometry relative="1" as="geometry" />
        </mxCell>
        <mxCell id="26erQ_Vt4P8bGItdYbQo-96" value="F" style="edgeLabel;html=1;align=center;verticalAlign=middle;resizable=0;points=[];" vertex="1" connectable="0" parent="26erQ_Vt4P8bGItdYbQo-95">
          <mxGeometry x="0.0476" y="-1" relative="1" as="geometry">
            <mxPoint x="1" as="offset" />
          </mxGeometry>
        </mxCell>
        <mxCell id="26erQ_Vt4P8bGItdYbQo-97" value="" style="edgeStyle=orthogonalEdgeStyle;rounded=0;orthogonalLoop=1;jettySize=auto;html=1;entryX=0.5;entryY=0;entryDx=0;entryDy=0;" edge="1" parent="1" source="26erQ_Vt4P8bGItdYbQo-99" target="26erQ_Vt4P8bGItdYbQo-103">
          <mxGeometry relative="1" as="geometry">
            <mxPoint x="412" y="660" as="targetPoint" />
          </mxGeometry>
        </mxCell>
        <mxCell id="26erQ_Vt4P8bGItdYbQo-98" value="T" style="edgeLabel;html=1;align=center;verticalAlign=middle;resizable=0;points=[];" vertex="1" connectable="0" parent="26erQ_Vt4P8bGItdYbQo-97">
          <mxGeometry x="-0.2239" y="-1" relative="1" as="geometry">
            <mxPoint as="offset" />
          </mxGeometry>
        </mxCell>
        <mxCell id="26erQ_Vt4P8bGItdYbQo-99" value="ตัวเลขที่กรอก &amp;gt;= 2" style="rhombus;whiteSpace=wrap;html=1;" vertex="1" parent="1">
          <mxGeometry x="325" y="490" width="174.5" height="80" as="geometry" />
        </mxCell>
        <mxCell id="26erQ_Vt4P8bGItdYbQo-100" value="&lt;span&gt;&lt;font face=&quot;Helvetica&quot; style=&quot;color: light-dark(rgb(0, 0, 0), rgb(255, 255, 255));&quot;&gt;show &quot;&lt;span style=&quot;white-space: pre;&quot;&gt;ให้กรอกเฉพาะตัวเลขเท่านั้น&lt;/span&gt;&quot;&lt;/font&gt;&lt;/span&gt;" style="shape=parallelogram;perimeter=parallelogramPerimeter;whiteSpace=wrap;html=1;fixedSize=1;" vertex="1" parent="1">
          <mxGeometry x="537" y="370" width="240" height="60" as="geometry" />
        </mxCell>
        <mxCell id="26erQ_Vt4P8bGItdYbQo-101" value="&lt;p&gt;&lt;font style=&quot;color: light-dark(rgb(0, 0, 0), rgb(255, 255, 255));&quot; face=&quot;Helvetica&quot;&gt;&lt;font style=&quot;&quot;&gt;show &quot;&lt;/font&gt;&lt;span style=&quot;white-space: pre;&quot;&gt;ไม่มีจำนวนเฉพาะในช่วง 1 ถึง ...&lt;/span&gt;&quot;&lt;/font&gt;&lt;/p&gt;" style="shape=parallelogram;perimeter=parallelogramPerimeter;whiteSpace=wrap;html=1;fixedSize=1;" vertex="1" parent="1">
          <mxGeometry x="537" y="500" width="240" height="60" as="geometry" />
        </mxCell>
        <mxCell id="26erQ_Vt4P8bGItdYbQo-102" value="" style="edgeStyle=orthogonalEdgeStyle;rounded=0;orthogonalLoop=1;jettySize=auto;html=1;" edge="1" parent="1" source="26erQ_Vt4P8bGItdYbQo-103" target="26erQ_Vt4P8bGItdYbQo-105">
          <mxGeometry relative="1" as="geometry" />
        </mxCell>
        <mxCell id="26erQ_Vt4P8bGItdYbQo-103" value="show &quot;จำนวนเฉพาะ : &quot;" style="shape=parallelogram;perimeter=parallelogramPerimeter;whiteSpace=wrap;html=1;fixedSize=1;" vertex="1" parent="1">
          <mxGeometry x="318.75" y="670" width="187.5" height="60" as="geometry" />
        </mxCell>
        <mxCell id="26erQ_Vt4P8bGItdYbQo-104" value="" style="edgeStyle=orthogonalEdgeStyle;rounded=0;orthogonalLoop=1;jettySize=auto;html=1;entryX=0.5;entryY=0;entryDx=0;entryDy=0;" edge="1" parent="1" source="26erQ_Vt4P8bGItdYbQo-105" target="26erQ_Vt4P8bGItdYbQo-167">
          <mxGeometry relative="1" as="geometry">
            <mxPoint x="413" y="907" as="targetPoint" />
          </mxGeometry>
        </mxCell>
        <mxCell id="26erQ_Vt4P8bGItdYbQo-105" value="i &amp;lt;-- n" style="whiteSpace=wrap;html=1;" vertex="1" parent="1">
          <mxGeometry x="352.5" y="790" width="120" height="60" as="geometry" />
        </mxCell>
        <mxCell id="26erQ_Vt4P8bGItdYbQo-143" value="End" style="ellipse;whiteSpace=wrap;html=1;" vertex="1" parent="1">
          <mxGeometry x="368" y="2220" width="90" height="60" as="geometry" />
        </mxCell>
        <mxCell id="26erQ_Vt4P8bGItdYbQo-169" value="" style="edgeStyle=orthogonalEdgeStyle;rounded=0;orthogonalLoop=1;jettySize=auto;html=1;" edge="1" parent="1" source="26erQ_Vt4P8bGItdYbQo-167" target="26erQ_Vt4P8bGItdYbQo-168">
          <mxGeometry relative="1" as="geometry" />
        </mxCell>
        <mxCell id="26erQ_Vt4P8bGItdYbQo-167" value="" style="ellipse;whiteSpace=wrap;html=1;" vertex="1" parent="1">
          <mxGeometry x="397.5" y="910" width="30" height="30" as="geometry" />
        </mxCell>
        <mxCell id="26erQ_Vt4P8bGItdYbQo-171" style="edgeStyle=orthogonalEdgeStyle;rounded=0;orthogonalLoop=1;jettySize=auto;html=1;exitX=0.5;exitY=1;exitDx=0;exitDy=0;entryX=0.5;entryY=0;entryDx=0;entryDy=0;" edge="1" parent="1" source="26erQ_Vt4P8bGItdYbQo-168" target="26erQ_Vt4P8bGItdYbQo-170">
          <mxGeometry relative="1" as="geometry" />
        </mxCell>
        <mxCell id="26erQ_Vt4P8bGItdYbQo-168" value="j &amp;lt;-- 2" style="whiteSpace=wrap;html=1;" vertex="1" parent="1">
          <mxGeometry x="352.5" y="1005" width="120" height="60" as="geometry" />
        </mxCell>
        <mxCell id="26erQ_Vt4P8bGItdYbQo-170" value="" style="ellipse;whiteSpace=wrap;html=1;" vertex="1" parent="1">
          <mxGeometry x="397" y="1110" width="30" height="30" as="geometry" />
        </mxCell>
        <mxCell id="26erQ_Vt4P8bGItdYbQo-172" value="" style="edgeStyle=orthogonalEdgeStyle;rounded=0;orthogonalLoop=1;jettySize=auto;html=1;exitX=0.5;exitY=1;exitDx=0;exitDy=0;" edge="1" parent="1" target="26erQ_Vt4P8bGItdYbQo-181" source="26erQ_Vt4P8bGItdYbQo-170">
          <mxGeometry relative="1" as="geometry">
            <mxPoint x="412.53846153846143" y="1250.0015384615385" as="sourcePoint" />
          </mxGeometry>
        </mxCell>
        <mxCell id="26erQ_Vt4P8bGItdYbQo-177" style="edgeStyle=orthogonalEdgeStyle;rounded=0;orthogonalLoop=1;jettySize=auto;html=1;exitX=0.5;exitY=1;exitDx=0;exitDy=0;entryX=0.5;entryY=0;entryDx=0;entryDy=0;" edge="1" parent="1" source="26erQ_Vt4P8bGItdYbQo-181" target="26erQ_Vt4P8bGItdYbQo-210">
          <mxGeometry relative="1" as="geometry">
            <mxPoint x="412" y="1550" as="targetPoint" />
          </mxGeometry>
        </mxCell>
        <mxCell id="26erQ_Vt4P8bGItdYbQo-178" value="T" style="edgeLabel;html=1;align=center;verticalAlign=middle;resizable=0;points=[];" vertex="1" connectable="0" parent="26erQ_Vt4P8bGItdYbQo-177">
          <mxGeometry x="0.0065" y="1" relative="1" as="geometry">
            <mxPoint x="-1" as="offset" />
          </mxGeometry>
        </mxCell>
        <mxCell id="26erQ_Vt4P8bGItdYbQo-179" style="edgeStyle=orthogonalEdgeStyle;rounded=0;orthogonalLoop=1;jettySize=auto;html=1;exitX=0;exitY=0.5;exitDx=0;exitDy=0;entryX=1;entryY=0.5;entryDx=0;entryDy=0;" edge="1" parent="1" source="26erQ_Vt4P8bGItdYbQo-181" target="26erQ_Vt4P8bGItdYbQo-185">
          <mxGeometry relative="1" as="geometry" />
        </mxCell>
        <mxCell id="26erQ_Vt4P8bGItdYbQo-180" value="F" style="edgeLabel;html=1;align=center;verticalAlign=middle;resizable=0;points=[];" vertex="1" connectable="0" parent="26erQ_Vt4P8bGItdYbQo-179">
          <mxGeometry x="0.033" y="-1" relative="1" as="geometry">
            <mxPoint as="offset" />
          </mxGeometry>
        </mxCell>
        <mxCell id="26erQ_Vt4P8bGItdYbQo-181" value="i หาร j แล้วไม่มีเศษ?" style="rhombus;whiteSpace=wrap;html=1;" vertex="1" parent="1">
          <mxGeometry x="345" y="1200" width="134.5" height="80" as="geometry" />
        </mxCell>
        <mxCell id="26erQ_Vt4P8bGItdYbQo-224" style="edgeStyle=orthogonalEdgeStyle;rounded=0;orthogonalLoop=1;jettySize=auto;html=1;exitX=0.5;exitY=1;exitDx=0;exitDy=0;entryX=0.5;entryY=0;entryDx=0;entryDy=0;" edge="1" parent="1" source="26erQ_Vt4P8bGItdYbQo-182" target="26erQ_Vt4P8bGItdYbQo-189">
          <mxGeometry relative="1" as="geometry" />
        </mxCell>
        <mxCell id="26erQ_Vt4P8bGItdYbQo-182" value="j &amp;lt;-- j + 1" style="whiteSpace=wrap;html=1;" vertex="1" parent="1">
          <mxGeometry x="200" y="1310" width="120" height="60" as="geometry" />
        </mxCell>
        <mxCell id="26erQ_Vt4P8bGItdYbQo-223" style="edgeStyle=orthogonalEdgeStyle;rounded=0;orthogonalLoop=1;jettySize=auto;html=1;exitX=0.5;exitY=1;exitDx=0;exitDy=0;entryX=0.5;entryY=0;entryDx=0;entryDy=0;" edge="1" parent="1" source="26erQ_Vt4P8bGItdYbQo-185" target="26erQ_Vt4P8bGItdYbQo-182">
          <mxGeometry relative="1" as="geometry" />
        </mxCell>
        <mxCell id="26erQ_Vt4P8bGItdYbQo-185" value="" style="ellipse;whiteSpace=wrap;html=1;" vertex="1" parent="1">
          <mxGeometry x="245" y="1225" width="30" height="30" as="geometry" />
        </mxCell>
        <mxCell id="26erQ_Vt4P8bGItdYbQo-225" style="edgeStyle=orthogonalEdgeStyle;rounded=0;orthogonalLoop=1;jettySize=auto;html=1;exitX=0.5;exitY=1;exitDx=0;exitDy=0;entryX=0.5;entryY=0;entryDx=0;entryDy=0;" edge="1" parent="1" source="26erQ_Vt4P8bGItdYbQo-189" target="26erQ_Vt4P8bGItdYbQo-226">
          <mxGeometry relative="1" as="geometry">
            <mxPoint x="260" y="1550" as="targetPoint" />
          </mxGeometry>
        </mxCell>
        <mxCell id="26erQ_Vt4P8bGItdYbQo-244" value="F" style="edgeLabel;html=1;align=center;verticalAlign=middle;resizable=0;points=[];" vertex="1" connectable="0" parent="26erQ_Vt4P8bGItdYbQo-225">
          <mxGeometry x="-0.0932" y="3" relative="1" as="geometry">
            <mxPoint as="offset" />
          </mxGeometry>
        </mxCell>
        <mxCell id="26erQ_Vt4P8bGItdYbQo-228" style="edgeStyle=orthogonalEdgeStyle;rounded=0;orthogonalLoop=1;jettySize=auto;html=1;exitX=0;exitY=0.5;exitDx=0;exitDy=0;entryX=1;entryY=0.5;entryDx=0;entryDy=0;" edge="1" parent="1" source="26erQ_Vt4P8bGItdYbQo-189" target="26erQ_Vt4P8bGItdYbQo-229">
          <mxGeometry relative="1" as="geometry">
            <mxPoint x="170" y="1460.2105263157896" as="targetPoint" />
          </mxGeometry>
        </mxCell>
        <mxCell id="26erQ_Vt4P8bGItdYbQo-245" value="T" style="edgeLabel;html=1;align=center;verticalAlign=middle;resizable=0;points=[];" vertex="1" connectable="0" parent="26erQ_Vt4P8bGItdYbQo-228">
          <mxGeometry x="-0.0805" y="1" relative="1" as="geometry">
            <mxPoint as="offset" />
          </mxGeometry>
        </mxCell>
        <mxCell id="26erQ_Vt4P8bGItdYbQo-189" value="j &amp;lt; i ?" style="rhombus;whiteSpace=wrap;html=1;" vertex="1" parent="1">
          <mxGeometry x="220" y="1420" width="80" height="80" as="geometry" />
        </mxCell>
        <mxCell id="26erQ_Vt4P8bGItdYbQo-200" style="edgeStyle=orthogonalEdgeStyle;rounded=0;orthogonalLoop=1;jettySize=auto;html=1;exitX=0.5;exitY=1;exitDx=0;exitDy=0;entryX=0.5;entryY=0;entryDx=0;entryDy=0;" edge="1" parent="1" source="26erQ_Vt4P8bGItdYbQo-198" target="26erQ_Vt4P8bGItdYbQo-199">
          <mxGeometry relative="1" as="geometry" />
        </mxCell>
        <mxCell id="26erQ_Vt4P8bGItdYbQo-218" style="edgeStyle=orthogonalEdgeStyle;rounded=0;orthogonalLoop=1;jettySize=auto;html=1;exitX=1;exitY=0.5;exitDx=0;exitDy=0;entryX=0;entryY=0.5;entryDx=0;entryDy=0;" edge="1" parent="1" source="26erQ_Vt4P8bGItdYbQo-198" target="26erQ_Vt4P8bGItdYbQo-219">
          <mxGeometry relative="1" as="geometry">
            <mxPoint x="520" y="1659.7142857142858" as="targetPoint" />
          </mxGeometry>
        </mxCell>
        <mxCell id="26erQ_Vt4P8bGItdYbQo-198" value="j == i ?" style="rhombus;whiteSpace=wrap;html=1;" vertex="1" parent="1">
          <mxGeometry x="372" y="1620" width="80" height="80" as="geometry" />
        </mxCell>
        <mxCell id="26erQ_Vt4P8bGItdYbQo-216" style="edgeStyle=orthogonalEdgeStyle;rounded=0;orthogonalLoop=1;jettySize=auto;html=1;exitX=0.5;exitY=1;exitDx=0;exitDy=0;entryX=0.5;entryY=0;entryDx=0;entryDy=0;" edge="1" parent="1" source="26erQ_Vt4P8bGItdYbQo-199" target="26erQ_Vt4P8bGItdYbQo-215">
          <mxGeometry relative="1" as="geometry" />
        </mxCell>
        <mxCell id="26erQ_Vt4P8bGItdYbQo-199" value="show แสดงค่า i ในแต่ละรอบ" style="shape=parallelogram;perimeter=parallelogramPerimeter;whiteSpace=wrap;html=1;fixedSize=1;" vertex="1" parent="1">
          <mxGeometry x="324.5" y="1734" width="175" height="60" as="geometry" />
        </mxCell>
        <mxCell id="26erQ_Vt4P8bGItdYbQo-204" value="" style="edgeStyle=orthogonalEdgeStyle;rounded=0;orthogonalLoop=1;jettySize=auto;html=1;" edge="1" parent="1" source="26erQ_Vt4P8bGItdYbQo-201" target="26erQ_Vt4P8bGItdYbQo-203">
          <mxGeometry relative="1" as="geometry" />
        </mxCell>
        <mxCell id="26erQ_Vt4P8bGItdYbQo-201" value="i &amp;lt;-- i - 1" style="whiteSpace=wrap;html=1;" vertex="1" parent="1">
          <mxGeometry x="352.5" y="1940" width="120" height="60" as="geometry" />
        </mxCell>
        <mxCell id="26erQ_Vt4P8bGItdYbQo-205" style="edgeStyle=orthogonalEdgeStyle;rounded=0;orthogonalLoop=1;jettySize=auto;html=1;exitX=0.5;exitY=1;exitDx=0;exitDy=0;entryX=0.5;entryY=0;entryDx=0;entryDy=0;" edge="1" parent="1" source="26erQ_Vt4P8bGItdYbQo-203">
          <mxGeometry relative="1" as="geometry">
            <mxPoint x="412.5" y="2220" as="targetPoint" />
          </mxGeometry>
        </mxCell>
        <mxCell id="26erQ_Vt4P8bGItdYbQo-206" style="edgeStyle=orthogonalEdgeStyle;rounded=0;orthogonalLoop=1;jettySize=auto;html=1;entryX=1;entryY=0.5;entryDx=0;entryDy=0;exitX=1;exitY=0.5;exitDx=0;exitDy=0;" edge="1" parent="1" source="26erQ_Vt4P8bGItdYbQo-203" target="26erQ_Vt4P8bGItdYbQo-167">
          <mxGeometry relative="1" as="geometry">
            <mxPoint x="452" y="1910" as="sourcePoint" />
            <Array as="points">
              <mxPoint x="750" y="2110" />
              <mxPoint x="750" y="925" />
            </Array>
          </mxGeometry>
        </mxCell>
        <mxCell id="26erQ_Vt4P8bGItdYbQo-203" value="i &amp;gt;= 2 ?" style="rhombus;whiteSpace=wrap;html=1;" vertex="1" parent="1">
          <mxGeometry x="372.5" y="2070" width="80" height="80" as="geometry" />
        </mxCell>
        <mxCell id="26erQ_Vt4P8bGItdYbQo-211" style="edgeStyle=orthogonalEdgeStyle;rounded=0;orthogonalLoop=1;jettySize=auto;html=1;exitX=0.5;exitY=1;exitDx=0;exitDy=0;entryX=0.5;entryY=0;entryDx=0;entryDy=0;" edge="1" parent="1" source="26erQ_Vt4P8bGItdYbQo-210" target="26erQ_Vt4P8bGItdYbQo-198">
          <mxGeometry relative="1" as="geometry" />
        </mxCell>
        <mxCell id="26erQ_Vt4P8bGItdYbQo-210" value="" style="ellipse;whiteSpace=wrap;html=1;" vertex="1" parent="1">
          <mxGeometry x="397" y="1554" width="30" height="30" as="geometry" />
        </mxCell>
        <mxCell id="26erQ_Vt4P8bGItdYbQo-217" style="edgeStyle=orthogonalEdgeStyle;rounded=0;orthogonalLoop=1;jettySize=auto;html=1;exitX=0.5;exitY=1;exitDx=0;exitDy=0;entryX=0.5;entryY=0;entryDx=0;entryDy=0;" edge="1" parent="1" source="26erQ_Vt4P8bGItdYbQo-215" target="26erQ_Vt4P8bGItdYbQo-201">
          <mxGeometry relative="1" as="geometry" />
        </mxCell>
        <mxCell id="26erQ_Vt4P8bGItdYbQo-215" value="" style="ellipse;whiteSpace=wrap;html=1;" vertex="1" parent="1">
          <mxGeometry x="397" y="1857" width="30" height="30" as="geometry" />
        </mxCell>
        <mxCell id="26erQ_Vt4P8bGItdYbQo-221" style="edgeStyle=orthogonalEdgeStyle;rounded=0;orthogonalLoop=1;jettySize=auto;html=1;exitX=0.5;exitY=1;exitDx=0;exitDy=0;entryX=0.5;entryY=0;entryDx=0;entryDy=0;" edge="1" parent="1" source="26erQ_Vt4P8bGItdYbQo-219" target="26erQ_Vt4P8bGItdYbQo-220">
          <mxGeometry relative="1" as="geometry" />
        </mxCell>
        <mxCell id="26erQ_Vt4P8bGItdYbQo-219" value="" style="ellipse;whiteSpace=wrap;html=1;" vertex="1" parent="1">
          <mxGeometry x="540" y="1645" width="30" height="30" as="geometry" />
        </mxCell>
        <mxCell id="26erQ_Vt4P8bGItdYbQo-222" style="edgeStyle=orthogonalEdgeStyle;rounded=0;orthogonalLoop=1;jettySize=auto;html=1;exitX=0;exitY=0.5;exitDx=0;exitDy=0;entryX=1;entryY=0.5;entryDx=0;entryDy=0;" edge="1" parent="1" source="26erQ_Vt4P8bGItdYbQo-220" target="26erQ_Vt4P8bGItdYbQo-215">
          <mxGeometry relative="1" as="geometry" />
        </mxCell>
        <mxCell id="26erQ_Vt4P8bGItdYbQo-220" value="" style="ellipse;whiteSpace=wrap;html=1;" vertex="1" parent="1">
          <mxGeometry x="540" y="1857" width="30" height="30" as="geometry" />
        </mxCell>
        <mxCell id="26erQ_Vt4P8bGItdYbQo-227" style="edgeStyle=orthogonalEdgeStyle;rounded=0;orthogonalLoop=1;jettySize=auto;html=1;exitX=1;exitY=0.5;exitDx=0;exitDy=0;entryX=0;entryY=0.5;entryDx=0;entryDy=0;" edge="1" parent="1" source="26erQ_Vt4P8bGItdYbQo-226" target="26erQ_Vt4P8bGItdYbQo-210">
          <mxGeometry relative="1" as="geometry" />
        </mxCell>
        <mxCell id="26erQ_Vt4P8bGItdYbQo-226" value="" style="ellipse;whiteSpace=wrap;html=1;" vertex="1" parent="1">
          <mxGeometry x="245" y="1554" width="30" height="30" as="geometry" />
        </mxCell>
        <mxCell id="26erQ_Vt4P8bGItdYbQo-231" style="edgeStyle=orthogonalEdgeStyle;rounded=0;orthogonalLoop=1;jettySize=auto;html=1;exitX=0.5;exitY=0;exitDx=0;exitDy=0;entryX=0.5;entryY=1;entryDx=0;entryDy=0;" edge="1" parent="1" source="26erQ_Vt4P8bGItdYbQo-229" target="26erQ_Vt4P8bGItdYbQo-230">
          <mxGeometry relative="1" as="geometry" />
        </mxCell>
        <mxCell id="26erQ_Vt4P8bGItdYbQo-229" value="" style="ellipse;whiteSpace=wrap;html=1;" vertex="1" parent="1">
          <mxGeometry x="130" y="1445" width="30" height="30" as="geometry" />
        </mxCell>
        <mxCell id="26erQ_Vt4P8bGItdYbQo-233" style="edgeStyle=orthogonalEdgeStyle;rounded=0;orthogonalLoop=1;jettySize=auto;html=1;exitX=1;exitY=0.5;exitDx=0;exitDy=0;entryX=0;entryY=0.5;entryDx=0;entryDy=0;" edge="1" parent="1" source="26erQ_Vt4P8bGItdYbQo-230" target="26erQ_Vt4P8bGItdYbQo-170">
          <mxGeometry relative="1" as="geometry" />
        </mxCell>
        <mxCell id="26erQ_Vt4P8bGItdYbQo-230" value="" style="ellipse;whiteSpace=wrap;html=1;" vertex="1" parent="1">
          <mxGeometry x="130" y="1110" width="30" height="30" as="geometry" />
        </mxCell>
        <mxCell id="26erQ_Vt4P8bGItdYbQo-234" value="" style="strokeWidth=2;html=1;shape=mxgraph.flowchart.annotation_2;align=left;labelPosition=right;pointerEvents=1;rotation=0;" vertex="1" parent="1">
          <mxGeometry x="245" y="1631" width="50" height="58" as="geometry" />
        </mxCell>
        <mxCell id="26erQ_Vt4P8bGItdYbQo-235" value="ตรวจสอบว่า ไม่มีตัวหารอื่นนอกจาก i (ตัวมันเอง) คือจำนวนเฉพาะ" style="text;html=1;align=center;verticalAlign=middle;whiteSpace=wrap;rounded=0;" vertex="1" parent="1">
          <mxGeometry x="50" y="1645" width="180" height="30" as="geometry" />
        </mxCell>
        <mxCell id="26erQ_Vt4P8bGItdYbQo-236" value="" style="strokeWidth=2;html=1;shape=mxgraph.flowchart.annotation_2;align=left;labelPosition=right;pointerEvents=1;rotation=0;" vertex="1" parent="1">
          <mxGeometry x="250" y="1730" width="50" height="58" as="geometry" />
        </mxCell>
        <mxCell id="26erQ_Vt4P8bGItdYbQo-237" value="แสดงค่า i ในแต่ละรอบ" style="text;html=1;align=center;verticalAlign=middle;whiteSpace=wrap;rounded=0;" vertex="1" parent="1">
          <mxGeometry x="70" y="1744" width="180" height="30" as="geometry" />
        </mxCell>
        <mxCell id="26erQ_Vt4P8bGItdYbQo-238" value="" style="strokeWidth=2;html=1;shape=mxgraph.flowchart.annotation_2;align=left;labelPosition=right;pointerEvents=1;rotation=-180;" vertex="1" parent="1">
          <mxGeometry x="490" y="1194.5" width="50" height="291" as="geometry" />
        </mxCell>
        <mxCell id="26erQ_Vt4P8bGItdYbQo-239" value="วนหาตัวหารอื่นนอกจาก 1 และ ตัวมันเอง ถ้า i หาร j แล้วไม่มีเศษ ให้ออกจาก Loop" style="text;html=1;align=center;verticalAlign=middle;whiteSpace=wrap;rounded=0;" vertex="1" parent="1">
          <mxGeometry x="557" y="1325.54" width="150" height="30" as="geometry" />
        </mxCell>
        <mxCell id="26erQ_Vt4P8bGItdYbQo-240" value="" style="strokeWidth=2;html=1;shape=mxgraph.flowchart.annotation_2;align=left;labelPosition=right;pointerEvents=1;rotation=-180;" vertex="1" parent="1">
          <mxGeometry x="499.5" y="990" width="50" height="100" as="geometry" />
        </mxCell>
        <mxCell id="26erQ_Vt4P8bGItdYbQo-241" value="กำหนดให้ j เท่ากับ 2 เพราะ 2 เป็นจำนวนเฉพาะตัวแรก" style="text;html=1;align=center;verticalAlign=middle;whiteSpace=wrap;rounded=0;" vertex="1" parent="1">
          <mxGeometry x="566.5" y="1025" width="150" height="30" as="geometry" />
        </mxCell>
        <mxCell id="26erQ_Vt4P8bGItdYbQo-242" value="" style="strokeWidth=2;html=1;shape=mxgraph.flowchart.annotation_2;align=left;labelPosition=right;pointerEvents=1;" vertex="1" parent="1">
          <mxGeometry x="285" y="2070" width="50" height="100" as="geometry" />
        </mxCell>
        <mxCell id="26erQ_Vt4P8bGItdYbQo-243" value="i น้อยกว่า&amp;nbsp; 2&lt;div&gt;ให้ออกจาก Loop&lt;span style=&quot;background-color: transparent; color: light-dark(rgb(0, 0, 0), rgb(255, 255, 255));&quot;&gt;&amp;nbsp;&lt;/span&gt;&lt;/div&gt;" style="text;html=1;align=center;verticalAlign=middle;whiteSpace=wrap;rounded=0;" vertex="1" parent="1">
          <mxGeometry x="127" y="2105" width="150" height="30" as="geometry" />
        </mxCell>
      </root>
    </mxGraphModel>
  </diagram>
</mxfile>
